<svg width="128" height="128" viewBox="0 0 128 128" xmlns="http://www.w3.org/2000/svg" xmlns:xlink="http://www.w3.org/1999/xlink"><defs><linearGradient x1="100%" y1="0%" x2="0%" y2="100%" id="a"><stop stop-color="#F5A852" offset="0%"/><stop stop-color="#F66F5E" offset="100%"/></linearGradient><path d="M64,0 C99.392,0 128,28.608 128,64 C128,99.392 99.392,128 64,128 C28.608,128 0,99.392 0,64 C0,28.608 28.608,0 64,0 Z M67.867008,8 C67.867008,8 73.1779336,22.7317663 67.3282184,28.9206269 C67.3282184,28.9206269 66.0966994,22.0483339 62.2097177,19.5803833 C62.2097177,19.5803833 63.5951765,20.7953744 63.6721465,22.5039555 C63.7491164,25.0098745 62.979417,27.0222034 59.9006196,32.1099784 C56.2830326,38.0710282 53.0118103,44.1839518 48.8169489,49.3096952 C41.427835,58.2702541 36.0784245,67.4586239 38.6569173,78.9630702 C40.5426808,87.3920705 45.6611815,95.1756069 53.8199946,98.2510529 C57.6300065,99.1243277 60.0545595,100.225413 62.6715373,99.9596341 C57.4760666,96.5424718 54.8975737,84.0128767 57.8994012,78.5074486 C58.1303111,78.0518269 59.2463751,86.7086381 62.1712327,90.9611067 C62.4647925,91.4131964 62.7876582,91.9020841 63.1172774,92.3954951 L63.4897588,92.9507888 L63.4897588,92.9507888 L63.7377215,93.318062 C64.9724139,95.1422792 66.1038594,96.7464419 65.9427596,96.4285664 C65.7118498,94.8718591 67.867008,86.5567642 69.2139819,79.912282 C69.3679217,79.2415057 69.6800776,78.0982329 70.0364199,76.9619912 L70.1502848,76.6039711 L70.1502848,76.6039711 L70.2662894,76.2497742 C70.9282035,74.2598297 71.654739,72.6156746 71.7924747,74.0651376 C71.5615649,75.1662232 74.3324826,79.6085342 74.7943022,82.9497596 C75.4870316,86.9364489 75.4870316,89.8220526 74.7943022,93.3910888 C74.6865443,93.8074763 74.6165017,94.1866548 74.5523957,94.5657643 L74.4981604,94.8915647 C74.3082371,96.0378708 74.0900273,97.2790601 72.9855087,99.6179178 C72.5236891,100.491193 77.48825,95.4034177 79.7203781,92.517814 C81.2982618,90.5054851 81.9909912,89.1765886 83.1070553,86.9744174 C83.6848643,85.9070815 84.3294356,84.2740711 84.9240988,82.6471953 L85.0780195,82.223308 C86.2736614,78.9098382 87.2185327,75.8296168 86.9170672,77.8619846 C86.9170672,80.0641559 85.5700933,87.8476922 86.2243377,86.9744174 C89.3801051,81.8486739 90.4961692,80.3299351 91.4198084,75.4320025 C93.3825418,67.1548761 90.0728345,59.4472767 85.877973,52.4610782 C86.8785822,43.7283302 87.3019168,34.5399605 83.6843298,28.4270368 L83.692924,28.4432458 C83.8471773,28.7385909 85.986001,33.0198894 82.6067507,37.1597849 C80.3900166,21.2312524 68.8452651,9.01184454 67.9252317,8.05977756 L67.8817443,8.01501273 C67.8719802,8.00502703 67.867008,8 67.867008,8 Z" id="b"/></defs><g fill="none" fill-rule="evenodd"><use fill="url(#a)" xlink:href="#b"/><use fill="#F66F5E" xlink:href="#b"/></g></svg>