<svg xmlns="http://www.w3.org/2000/svg" width="240" height="50"><g fill="none" fill-rule="evenodd"><path fill="#323639" d="M61.806 30.754c.48 0 .944-.092 1.393-.276a7.845 7.845 0 0 0 1.44-.805l1.68 2.401a7.242 7.242 0 0 1-2.112 1.225c-.8.304-1.673.456-2.617.456-1.36 0-2.533-.28-3.517-.84a5.69 5.69 0 0 1-2.27-2.353c-.528-1.009-.792-2.177-.792-3.506 0-1.328.272-2.513.817-3.553a6.045 6.045 0 0 1 2.317-2.45c1-.591 2.172-.888 3.517-.888.944 0 1.793.132 2.545.397a6.856 6.856 0 0 1 2.113 1.212l-1.633 2.281c-.928-.64-1.88-.96-2.857-.96-1.905 0-2.857 1.32-2.857 3.961 0 1.329.248 2.277.744 2.845.496.569 1.193.853 2.089.853Zm12.757-10.589c1.937 0 3.453.613 4.55 1.837 1.096 1.225 1.645 2.87 1.645 4.934 0 2.145-.545 3.818-1.633 5.018-1.088 1.2-2.61 1.8-4.562 1.8-1.953 0-3.473-.595-4.562-1.788-1.088-1.192-1.632-2.861-1.632-5.006 0-1.36.244-2.549.732-3.565a5.499 5.499 0 0 1 2.137-2.377c.936-.568 2.045-.853 3.325-.853Zm0 2.81c-.784 0-1.36.316-1.729.948-.368.632-.552 1.645-.552 3.037 0 1.409.184 2.43.552 3.061.369.633.945.949 1.73.949.783 0 1.36-.32 1.728-.96.368-.64.552-1.665.552-3.074 0-1.376-.184-2.38-.552-3.013-.368-.632-.945-.948-1.729-.948Zm8.484-2.377h3.313l.264 1.464c.576-.64 1.18-1.116 1.813-1.428.632-.313 1.348-.469 2.149-.469 1.104 0 1.964.337 2.58 1.009.617.672.925 1.608.925 2.809v9.364h-3.794v-8.26c0-.8-.088-1.352-.264-1.656-.176-.304-.496-.456-.96-.456-.384 0-.756.124-1.117.372-.36.248-.732.612-1.116 1.092v8.908h-3.793v-12.75Zm25.482 12.004c-1.2.769-2.593 1.153-4.178 1.153-1.633 0-2.861-.416-3.685-1.249-.825-.832-1.237-2-1.237-3.505v-5.786h-2.665v-2.617h2.665v-2.762l3.794-.456v3.218h4.105l-.384 2.617h-3.721V29c0 .624.144 1.072.432 1.344.288.273.752.409 1.392.409.8 0 1.545-.192 2.233-.577l1.249 2.425Zm5.818-4.513c.24 1.936 1.265 2.905 3.073 2.905 1.089 0 2.177-.352 3.266-1.057l1.512 2.065c-.624.544-1.368.973-2.233 1.285-.864.312-1.816.468-2.857.468-1.424 0-2.633-.284-3.625-.853a5.501 5.501 0 0 1-2.245-2.376c-.504-1.017-.757-2.197-.757-3.542 0-1.28.245-2.437.733-3.47a5.779 5.779 0 0 1 2.137-2.448c.936-.6 2.052-.9 3.349-.9 1.216 0 2.273.26 3.17.78.896.52 1.588 1.272 2.076 2.257.488.984.732 2.156.732 3.517 0 .528-.024.984-.072 1.369h-8.259Zm2.353-5.379c-.688 0-1.24.253-1.657.757-.416.504-.664 1.276-.744 2.317h4.682c-.032-2.05-.792-3.074-2.281-3.074Zm8.363-2.112h3.314l.264 1.464c.576-.64 1.18-1.116 1.812-1.428.633-.313 1.349-.469 2.15-.469 1.104 0 1.964.337 2.58 1.009.617.672.925 1.608.925 2.809v9.364h-3.794v-8.26c0-.8-.088-1.352-.264-1.656-.176-.304-.496-.456-.96-.456-.384 0-.757.124-1.117.372s-.732.612-1.116 1.092v8.908h-3.794v-12.75Zm25.483 12.004c-1.201.769-2.594 1.153-4.178 1.153-1.633 0-2.861-.416-3.686-1.249-.824-.832-1.236-2-1.236-3.505v-5.786h-2.665v-2.617h2.665v-2.762l3.793-.456v3.218h4.106l-.384 2.617h-3.722V29c0 .624.144 1.072.433 1.344.288.273.752.409 1.392.409.8 0 1.545-.192 2.233-.577l1.249 2.425Z"/><path fill="#F66F5E" d="M158.573 13.923c.656 0 1.192.204 1.608.612.417.408.625.917.625 1.525 0 .624-.208 1.136-.625 1.536-.416.4-.952.6-1.608.6-.657 0-1.197-.203-1.62-.612-.425-.408-.637-.916-.637-1.524s.212-1.117.636-1.525c.424-.408.964-.612 1.62-.612Zm2.28 16.83h3.266v2.594h-10.66v-2.593h3.601V23.19h-3.481v-2.593h7.275v10.156Zm18.424-9.411c-.832.336-2.057.504-3.673.504.832.368 1.452.808 1.86 1.32.408.513.613 1.17.613 1.97 0 .816-.225 1.548-.673 2.196-.448.649-1.08 1.157-1.897 1.525-.816.368-1.76.552-2.833.552a7.34 7.34 0 0 1-1.488-.144.68.68 0 0 0-.3.3.888.888 0 0 0-.108.42c0 .24.092.428.276.565.184.136.556.204 1.116.204h2.113c.96 0 1.809.16 2.545.48.736.32 1.305.76 1.705 1.32.4.56.6 1.193.6 1.897 0 1.329-.58 2.365-1.74 3.11-1.161.744-2.854 1.116-5.079 1.116-1.584 0-2.829-.164-3.733-.492-.905-.329-1.537-.789-1.897-1.38-.36-.593-.54-1.337-.54-2.234h3.361c0 .4.076.712.228.937.152.224.436.392.853.504.416.112 1.024.168 1.824.168 1.12 0 1.893-.128 2.317-.384.424-.256.636-.617.636-1.08 0-.385-.156-.693-.468-.925-.312-.232-.772-.348-1.38-.348h-2.017c-1.313 0-2.297-.236-2.953-.709-.657-.472-.985-1.076-.985-1.812 0-.48.124-.933.372-1.357.249-.424.597-.78 1.045-1.068-.8-.432-1.377-.94-1.729-1.525-.352-.584-.528-1.292-.528-2.125 0-.944.24-1.768.72-2.473.48-.704 1.153-1.244 2.017-1.62.864-.377 1.849-.565 2.953-.565 1.28.032 2.37-.092 3.266-.372.896-.28 1.808-.7 2.737-1.26l.864 2.785Zm-6.77 1.32c-.609 0-1.085.192-1.43.577-.343.384-.515.904-.515 1.56 0 .689.176 1.225.528 1.609.352.384.824.576 1.416.576.625 0 1.105-.188 1.44-.564.337-.376.505-.932.505-1.669 0-1.392-.648-2.089-1.945-2.089Zm8.579-2.064h3.313l.264 1.464c.576-.64 1.18-1.116 1.813-1.428.632-.313 1.348-.469 2.149-.469 1.104 0 1.965.337 2.58 1.009.617.672.925 1.608.925 2.809v9.364h-3.793v-8.26c0-.8-.088-1.352-.264-1.656-.177-.304-.497-.456-.96-.456-.385 0-.757.124-1.117.372s-.733.612-1.117 1.092v8.908h-3.793v-12.75Zm19.504-6.675c.656 0 1.192.204 1.608.612.416.408.624.917.624 1.525 0 .624-.208 1.136-.624 1.536-.416.4-.952.6-1.608.6-.657 0-1.197-.203-1.621-.612-.424-.408-.636-.916-.636-1.524s.212-1.117.636-1.525c.424-.408.964-.612 1.62-.612Zm2.28 16.83h3.266v2.594h-10.66v-2.593h3.6V23.19h-3.48v-2.593h7.274v10.156Zm17.704 1.85c-1.201.768-2.594 1.152-4.178 1.152-1.633 0-2.861-.416-3.686-1.249-.824-.832-1.236-2-1.236-3.505v-5.786h-2.665v-2.617h2.665v-2.762l3.793-.456v3.218h4.106l-.384 2.617h-3.722V29c0 .624.144 1.072.433 1.344.288.273.752.409 1.392.409.8 0 1.545-.192 2.233-.577l1.249 2.425Zm5.818-4.514c.24 1.936 1.264 2.905 3.073 2.905 1.089 0 2.177-.352 3.265-1.057l1.513 2.065c-.624.544-1.369.973-2.233 1.285-.864.312-1.817.468-2.857.468-1.425 0-2.633-.284-3.625-.853a5.501 5.501 0 0 1-2.245-2.376c-.505-1.017-.757-2.197-.757-3.542 0-1.28.244-2.437.733-3.47a5.779 5.779 0 0 1 2.136-2.448c.937-.6 2.053-.9 3.35-.9 1.216 0 2.273.26 3.17.78.895.52 1.588 1.272 2.076 2.257.488.984.732 2.156.732 3.517 0 .528-.024.984-.072 1.369h-8.26Zm2.353-5.379c-.688 0-1.24.253-1.657.757-.416.504-.664 1.276-.744 2.317h4.682c-.032-2.05-.793-3.074-2.281-3.074Zm7.641-8.397c.552 0 1.06.138 1.525.414a3.077 3.077 0 0 1 1.512 2.647 2.96 2.96 0 0 1-.408 1.525c-.272.464-.64.832-1.104 1.104a2.96 2.96 0 0 1-1.525.408 2.993 2.993 0 0 1-1.53-.408 3.03 3.03 0 0 1-1.111-1.104 2.96 2.96 0 0 1-.408-1.525 3.063 3.063 0 0 1 1.519-2.647 2.96 2.96 0 0 1 1.53-.414Zm0 .564a2.31 2.31 0 0 0-1.224.336 2.414 2.414 0 0 0-.87.913c-.213.384-.319.8-.319 1.248 0 .456.106.872.318 1.249.212.376.502.674.87.894.369.22.777.33 1.225.33.448 0 .856-.11 1.225-.33.368-.22.656-.518.864-.894.208-.377.312-.793.312-1.249a2.57 2.57 0 0 0-.312-1.254 2.38 2.38 0 0 0-.864-.907 2.31 2.31 0 0 0-1.225-.336Zm-.168.768c.976 0 1.465.34 1.465 1.02 0 .24-.072.44-.216.601-.145.16-.34.276-.589.348l1.033 1.417h-.793l-.9-1.309h-.348v1.309h-.672v-3.386h1.02Zm-.348.529v1.032h.384c.488 0 .732-.18.732-.54 0-.328-.252-.492-.756-.492h-.36Z"/><path fill="#323639" d="M25.21 0c13.923 0 25.21 11.287 25.21 25.21S39.133 50.42 25.21 50.42 0 39.133 0 25.21 11.287 0 25.21 0Zm-2.186 16.083a11.814 11.814 0 0 0-4.267 1.71c-5.488 3.565-7.048 10.903-3.484 16.391 3.564 5.489 10.902 7.048 16.39 3.484a11.814 11.814 0 0 0 3.3-3.202l-3.194-4.916A6.807 6.807 0 1 1 26.216 21Zm6.53-3.42a4.542 4.542 0 0 1-3.934 3.201l.016.025-.033-.001 4.967 7.647a6.895 6.895 0 0 1 .653 1.006l4.966 7.649a11.835 11.835 0 0 0-1.042-10.912ZM25.528 4.5s.55 1.534-.056 2.179c0 0-.127-.716-.53-.973 0 0 .144.127.152.304.008.261-.072.47-.39 1-.375.621-.714 1.258-1.148 1.792-.637.777-1.128 1.572-1.119 2.508v.035c0 .537.153 1.039.418 1.464.277.488.685.886 1.22 1.089l.136.034a2.766 2.766 0 0 0 1.876.044 4.31 4.31 0 0 1-.03.064c-.016.032.035-.011.118-.094a2.777 2.777 0 0 0 1.808-2.601l-.003.095.023-.116c.112-.787-.21-1.523-.611-2.194.095-.834.14-1.707-.142-2.337l-.082-.159.01.02c.046.105.186.5-.125.883-.239-1.728-1.525-3.037-1.525-3.037Z"/></g></svg>